<svg xmlns="http://www.w3.org/2000/svg" width="40" height="40" viewBox="0 0 40 40">
  <g id="Group_3783"  transform="translate(-24 -227)">
    <circle id="Ellipse_426" cx="20" cy="20" r="20" transform="translate(24 227)" fill="#fff"/>
    <path id="phone" d="M14.5,26.994a12.494,12.494,0,1,1,8.839-3.655A12.465,12.465,0,0,1,14.5,26.994ZM14.5,4a10.5,10.5,0,1,0,7.425,3.07A10.47,10.47,0,0,0,14.5,4Zm3.9,17.116a3.643,3.643,0,0,1-1.806-.479,21.558,21.558,0,0,1-7.821-7.627l-.354-.59a3.6,3.6,0,0,1,.544-4.407l.7-.7a1.98,1.98,0,0,1,2.8,0l1.551,1.55a1.985,1.985,0,0,1,.324,2.37l-.452.8,3.077,3.077.8-.453a1.985,1.985,0,0,1,2.37.325l1.551,1.551a1.98,1.98,0,0,1,0,2.8l-.734.734A3.605,3.605,0,0,1,18.4,21.121ZM11.063,8.744l-.688.688a1.6,1.6,0,0,0-.242,1.965l.354.59a19.491,19.491,0,0,0,7.027,6.879,1.633,1.633,0,0,0,2.022-.21l.734-.734L18.719,16.4l-1.007.586a1.656,1.656,0,0,1-1.979-.271l-3.451-3.45a1.661,1.661,0,0,1-.271-1.979l.582-1.033-1.53-1.511Z" transform="translate(29.994 232.994)" fill="#3FB544"/>
  </g>
</svg>
