<svg xmlns="http://www.w3.org/2000/svg" xmlns:xlink="http://www.w3.org/1999/xlink" width="50" height="50" viewBox="0 0 50 50">
  <defs>
    <clipPath id="clip-path">
      <rect id="Rectangle_1917"  width="48" height="48" transform="translate(1057 18836)" fill="#fff" stroke="#707070" stroke-width="1"/>
    </clipPath>
  </defs>
  <g id="Group_3928" transform="translate(-1107 -18826)">
    <circle id="Ellipse_473"  cx="25" cy="25" r="25" transform="translate(1107 18826)" fill="#3FB544"/>
    <g id="chat_with_us"  transform="translate(51 -9)" clip-path="url(#clip-path)">
      <g id="Group_3780"  transform="translate(1056.536 18842.154)">
        <g id="Group_3779"  transform="translate(0 0)">
          <text id="C" transform="matrix(0.168, -0.986, 0.986, 0.168, 4.929, 24.302)" fill="#fff" font-size="7" font-family="Helvetica"><tspan x="0" y="0">C</tspan></text>
          <text id="h" transform="translate(6.939 18.698) rotate(-63.03)" fill="#fff" font-size="8" font-family="Helvetica"><tspan x="0" y="0">h</tspan></text>
          <text id="a" transform="translate(9.532 13.737) rotate(-47.025)" fill="#fff" font-size="8" font-family="Helvetica"><tspan x="0" y="0">a</tspan></text>
          <text id="t" transform="translate(12.873 10.281) rotate(-34.65)" fill="#fff" font-size="8" font-family="Helvetica"><tspan x="0" y="0">t</tspan></text>
          <text id="W" transform="matrix(0.981, -0.195, 0.195, 0.981, 17.014, 6.536)" fill="#fff" font-size="6" font-family="Helvetica"><tspan x="0" y="0">W</tspan></text>
          <text id="i" transform="translate(25.396 4.982) rotate(4.821)" fill="#fff" font-size="6" font-family="Helvetica"><tspan x="0" y="0">i</tspan></text>
          <text id="t-2"  transform="matrix(0.972, 0.234, -0.234, 0.972, 27.688, 6.149)" fill="#fff" font-size="8" font-family="Helvetica"><tspan x="0" y="0">t</tspan></text>
          <text id="h-2"  transform="matrix(0.892, 0.451, -0.451, 0.892, 31.003, 6.823)" fill="#fff" font-size="8" font-family="Helvetica"><tspan x="0" y="0">h</tspan></text>
          <text id="U" transform="matrix(0.615, 0.789, -0.789, 0.615, 38.514, 10.093)" fill="#fff" font-size="7" font-family="Helvetica"><tspan x="0" y="0">U</tspan></text>
          <text id="s" transform="translate(41.537 15.886) rotate(67.83)" fill="#fff" font-size="8" font-family="Helvetica"><tspan x="0" y="0">s</tspan></text>
        </g>
        <path id="support" d="M21.355,13.545a1.16,1.16,0,0,0-1.3,1,8.121,8.121,0,0,1-8.063,7.124H5.507l.754-.754a1.16,1.16,0,0,0,0-1.636A8.121,8.121,0,0,1,11.992,5.424a1.16,1.16,0,1,0,0-2.32A10.442,10.442,0,0,0,3.871,20.054L1.887,22a1.167,1.167,0,0,0,.824,1.984h9.282a10.442,10.442,0,0,0,10.361-9.133,1.16,1.16,0,0,0-1-1.309Zm-1.961-3.4a1.16,1.16,0,0,0-.673-.081l-.209.07-.209.1-.174.151a1.16,1.16,0,0,0-.244.371.975.975,0,0,0-.093.464,1.16,1.16,0,1,0,2.32,0,.975.975,0,0,0-.093-.441,1.241,1.241,0,0,0-.627-.627Z" transform="translate(12.877 11.565)" fill="#fff"/>
      </g>
    </g>
  </g>
</svg>
