<svg id="facebook-logo-2019" xmlns="http://www.w3.org/2000/svg" width="20.025" height="20.025" viewBox="0 0 20.025 20.025">
  <path id="Path_2055" data-name="Path 2055" d="M20.025,10.013A10.013,10.013,0,1,0,8.448,19.9v-7H5.906V10.013H8.448V7.807a3.533,3.533,0,0,1,3.782-3.9,15.4,15.4,0,0,1,2.241.2V6.571H13.209a1.447,1.447,0,0,0-1.632,1.564v1.878h2.777l-.444,2.894H11.577v7A10.015,10.015,0,0,0,20.025,10.013Z" transform="translate(0 0)" fill="#fefefe"/>
  <path id="Path_2056" data-name="Path 2056" d="M310,209l.444-2.894h-2.777v-1.878a1.447,1.447,0,0,1,1.632-1.564h1.263V200.2a15.4,15.4,0,0,0-2.241-.2,3.533,3.533,0,0,0-3.782,3.9V206.1H302V209h2.542v7a10.118,10.118,0,0,0,3.129,0v-7Z" transform="translate(-296.094 -196.089)" fill="#1aa7e1"/>
</svg>
