<svg xmlns="http://www.w3.org/2000/svg" width="40" height="40" viewBox="0 0 40 40">
  <g id="Group_3782" transform="translate(-24 -151)">
    <circle id="Ellipse_438"  cx="20" cy="20" r="20" transform="translate(24 151)" fill="#fff"/>
    <g id="faq" transform="translate(32.5 159.5)">
      <path id="Path_2052"  d="M5,1.5A1.5,1.5,0,0,0,3.5,3V21A1.5,1.5,0,0,0,5,22.5H19A1.5,1.5,0,0,0,20.5,21V8.01a.5.5,0,0,0-.15-.355l-6.1-6.011A.5.5,0,0,0,13.9,1.5Z" fill="none" stroke="#3FB544" stroke-width="1"/>
      <path id="Path_2053"  d="M14,2l.006,4a2,2,0,0,0,2,2H20" fill="none" stroke="#3FB544" stroke-width="1"/>
      <path id="Path_2054"  d="M14.016,9.941a.84.84,0,0,1-.835.835.82.82,0,0,1-.6-.246.8.8,0,0,1-.246-.589.826.826,0,0,1,.246-.6.814.814,0,0,1,.6-.25.8.8,0,0,1,.589.25.824.824,0,0,1,.246.6Zm-.88,3.42a2.61,2.61,0,0,1-.312,1.1L11.2,17.758a1.95,1.95,0,0,0-.253.73c0,.12.04.18.119.18q.246,0,1.013-.888.359-.425.418-.424a.211.211,0,0,1,.167.085.262.262,0,0,1,.071.168,2.66,2.66,0,0,1-.577.712,6.87,6.87,0,0,1-1.088.953,1.639,1.639,0,0,1-.854.347q-.714,0-.715-.656a2.892,2.892,0,0,1,.328-1.088L11.452,14.6a1.92,1.92,0,0,0,.254-.76c0-.1-.045-.149-.134-.149q-.255,0-1.058.932c-.22.253-.343.38-.373.38a.2.2,0,0,1-.16-.078.271.271,0,0,1-.064-.176q0-.111.57-.715a6.632,6.632,0,0,1,1.085-.95,1.656,1.656,0,0,1,.864-.347c.467,0,.7.21.7.626Z" fill="#3FB544" stroke="#3FB544" stroke-width="0.2"/>
    </g>
  </g>
</svg>
