<svg xmlns="http://www.w3.org/2000/svg" width="40" height="40" viewBox="0 0 40 40">
  <g id="Group_3812"  transform="translate(-24 -356)">
    <circle id="Ellipse_426"  cx="20" cy="20" r="20" transform="translate(24 356)" fill="#fff"/>
    <g id="feedback_1_"  transform="translate(30 362)">
      <path id="Path_2060"  d="M5.429,8.857A3.429,3.429,0,1,1,8.857,5.429,3.439,3.439,0,0,1,5.429,8.857Zm0-6A2.526,2.526,0,0,0,2.857,5.429,2.526,2.526,0,0,0,5.429,8,2.526,2.526,0,0,0,8,5.429,2.526,2.526,0,0,0,5.429,2.857Z" fill="#3FB544"/>
      <path id="Path_2061"  d="M5.779,7.793a1.692,1.692,0,0,1-1.2-.514.424.424,0,0,1,.6-.6.829.829,0,0,0,1.2,0,.424.424,0,0,1,.6.6A1.692,1.692,0,0,1,5.779,7.793Z" transform="translate(-0.35 -0.65)" fill="#3FB544"/>
      <circle id="Ellipse_480"  cx="0.429" cy="0.429" r="0.429" transform="translate(3.971 4.143)" fill="#3FB544"/>
      <circle id="Ellipse_481"  cx="0.429" cy="0.429" r="0.429" transform="translate(6.114 4.143)" fill="#3FB544"/>
      <path id="Path_2062" d="M5.429,18.857a3.429,3.429,0,1,1,3.429-3.429A3.439,3.439,0,0,1,5.429,18.857Zm0-6a2.571,2.571,0,0,0,0,5.143,2.571,2.571,0,1,0,0-5.143Z" transform="translate(0 -1.429)" fill="#3FB544"/>
      <path id="Path_2063"  d="M6.714,17.357H4.829a.429.429,0,1,1,0-.857h1.8a.4.4,0,0,1,.429.429A.392.392,0,0,1,6.714,17.357Z" transform="translate(-0.343 -2.071)" fill="#3FB544"/>
      <circle id="Ellipse_482"  cx="0.429" cy="0.429" r="0.429" transform="translate(3.971 12.714)" fill="#3FB544"/>
      <circle id="Ellipse_483"  cx="0.429" cy="0.429" r="0.429" transform="translate(6.114 12.714)" fill="#3FB544"/>
      <path id="Path_2064"  d="M5.429,28.857a3.429,3.429,0,1,1,3.429-3.429A3.439,3.439,0,0,1,5.429,28.857Zm0-6a2.571,2.571,0,0,0,0,5.143,2.571,2.571,0,1,0,0-5.143Z" transform="translate(0 -2.857)" fill="#3FB544"/>
      <path id="Path_2065"  d="M6.721,27.811a.515.515,0,0,1-.343-.086.829.829,0,0,0-1.2,0,.424.424,0,0,1-.6-.6,1.825,1.825,0,0,1,2.4,0,.414.414,0,0,1,0,.6.315.315,0,0,1-.257.086Z" transform="translate(-0.35 -3.525)" fill="#3FB544"/>
      <circle id="Ellipse_484"  cx="0.429" cy="0.429" r="0.429" transform="translate(3.971 21.286)" fill="#3FB544"/>
      <circle id="Ellipse_485"  cx="0.429" cy="0.429" r="0.429" transform="translate(6.114 21.286)" fill="#3FB544"/>
      <path id="Path_2066"  d="M16.714,8.143H12.429A.4.4,0,0,1,12,7.714V3.429A.4.4,0,0,1,12.429,3h4.286a.4.4,0,0,1,.429.429V7.714A.4.4,0,0,1,16.714,8.143Zm-3.857-.857h3.429V3.857H12.857Z" transform="translate(-1.429 -0.143)" fill="#3FB544"/>
      <path id="Path_2067"  d="M14.914,6.864a.515.515,0,0,1-.343-.086l-1.2-1.2a.424.424,0,0,1,.6-.6l.943.943,2.743-2.743a.424.424,0,1,1,.6.6l-3,3c-.086,0-.171.086-.343.086Zm1.8,9.857H12.429A.4.4,0,0,1,12,16.293V12.007a.4.4,0,0,1,.429-.429h4.286a.4.4,0,0,1,.429.429v4.286A.4.4,0,0,1,16.714,16.721Zm-3.857-.857h3.429V12.436H12.857Zm3.857,9.429H12.429A.4.4,0,0,1,12,24.864V20.579a.4.4,0,0,1,.429-.429h4.286a.4.4,0,0,1,.429.429v4.286A.4.4,0,0,1,16.714,25.293Zm-3.857-.857h3.429V21.007H12.857ZM27,21.864H19.286a.429.429,0,0,1,0-.857H27a.429.429,0,1,1,0,.857Zm-2.571,1.714H19.286a.429.429,0,1,1,0-.857h5.143a.429.429,0,0,1,0,.857ZM27,13.293H19.286a.429.429,0,0,1,0-.857H27a.429.429,0,1,1,0,.857Zm-2.571,1.714H19.286a.429.429,0,1,1,0-.857h5.143a.429.429,0,0,1,0,.857ZM27,4.721H19.286a.4.4,0,0,1-.429-.429.4.4,0,0,1,.429-.429H27a.4.4,0,0,1,.429.429A.4.4,0,0,1,27,4.721ZM24.429,6.436H19.286a.429.429,0,1,1,0-.857h5.143a.429.429,0,0,1,0,.857Z" transform="translate(-1.429 -0.15)" fill="#3FB544"/>
    </g>
  </g>
</svg>
