<svg xmlns="http://www.w3.org/2000/svg" width="40" height="40" viewBox="0 0 40 40">
  <g id="Group_3784"
      transform="translate(-24 -311)">
    <circle id="Ellipse_426"
        cx="20" cy="20" r="20" transform="translate(24 311)" fill="#fff"/>
    <path id="branch-locator" d="M20.829,20.249l.014.01a.4.4,0,1,0-.014-.01Zm.02,18.947a.4.4,0,0,0,.24.719.4.4,0,0,0,.235-.077l.014-.01a.4.4,0,0,0-.49-.632ZM11.954,17.906a.439.439,0,0,0,.053,0h.005a.4.4,0,1,0-.107-.792H11.9a.4.4,0,0,0,.053.8ZM18.1,29.656a.4.4,0,0,0,.4-.4v-1.6a.4.4,0,0,0-.266-.377l-4.4-3.516a.4.4,0,0,0-.5,0L8.92,27.287a.4.4,0,0,0-.246.369v1.6a.4.4,0,0,0,.4.4H9.59v3.762a1.2,1.2,0,0,0-.918,1.165v.8a.4.4,0,0,0,.4.4H18.1a.4.4,0,0,0,.4-.4v-.8a1.2,1.2,0,0,0-.918-1.163V29.656Zm-4.52-5.065,3.342,2.668H10.237Zm4.12,9.992v.4H9.471v-.4a.4.4,0,0,1,.4-.4H17.3a.4.4,0,0,1,.4.4Zm-7.31-1.2V29.656h.8v3.729Zm1.6,0V29.656h3.2v3.729Zm3.995,0V29.656h.8v3.729ZM9.471,28.857v-.8H17.7v.8ZM13.564,17.8h.005a.4.4,0,1,0,0-.8h-.005a.4.4,0,0,0,0,.8Zm.028,23.863h-.007a.4.4,0,0,0,0,.8h.005a.4.4,0,0,0,0-.8ZM16.65,18.2l.013,0a.414.414,0,0,0,.1.012.4.4,0,0,0,.1-.786l-.107.386.107-.386a.4.4,0,1,0-.21.771Zm2.907,21.868-.014.009a.393.393,0,1,0,.014-.009Zm.232.409-.035-.061.038.067Zm1.553-17.335a7.477,7.477,0,0,0,1.411,2.629,18.107,18.107,0,0,0,1.206,1.495h0l.013.014a.4.4,0,0,0,.558.007c.01-.01.019-.019.028-.029l.01-.011.005-.006c.381-.426.764-.9,1.139-1.408.045-.062.091-.123.136-.184a6.446,6.446,0,0,0,1.266-2.326,3.863,3.863,0,0,0,.107-.751h0a3.2,3.2,0,0,0-.61-2.07,2.9,2.9,0,0,0-4.434-.328,3.138,3.138,0,0,0-.833,2.966Zm1.4-2.4a2.181,2.181,0,0,1,1.517-.65,2.158,2.158,0,0,1,1.713.884,2.411,2.411,0,0,1,.452,1.561h0a3.105,3.105,0,0,1-.083.6,5.738,5.738,0,0,1-1.13,2.036l-.137.186c-.269.365-.542.711-.815,1.033-.279-.327-.561-.687-.855-1.09a6.889,6.889,0,0,1-1.278-2.341,2.344,2.344,0,0,1,.618-2.217Zm3.015,11a.44.44,0,0,0,.059,0,.4.4,0,0,0,.4-.344v-.017a.4.4,0,1,0-.455.354Zm-1.5.329a2.986,2.986,0,0,0-2.08.88,3.138,3.138,0,0,0-.833,2.966,7.477,7.477,0,0,0,1.411,2.629,18,18,0,0,0,1.206,1.495h0l.013.014a.4.4,0,0,0,.558.007c.01-.01.019-.019.028-.029l.015-.017h0c.381-.426.764-.9,1.139-1.408l.136-.184A6.441,6.441,0,0,0,27.113,36.1a3.863,3.863,0,0,0,.107-.751h0a3.209,3.209,0,0,0-.61-2.07,2.963,2.963,0,0,0-2.354-1.208Zm2.167,3.242h0a3.1,3.1,0,0,1-.085.6,5.734,5.734,0,0,1-1.13,2.036l-.137.186c-.269.365-.542.711-.815,1.033-.279-.327-.561-.687-.855-1.091a6.889,6.889,0,0,1-1.278-2.341,2.344,2.344,0,0,1,.618-2.217,2.184,2.184,0,0,1,1.517-.648,2.16,2.16,0,0,1,1.713.884A2.431,2.431,0,0,1,26.422,35.314ZM24.255,23.652a1.365,1.365,0,1,0-1.365-1.365,1.365,1.365,0,0,0,1.365,1.365Zm0-1.93a.566.566,0,1,1-.566.566A.566.566,0,0,1,24.255,21.722Zm0,11.981a1.365,1.365,0,1,0,1.364,1.365A1.365,1.365,0,0,0,24.255,33.7Zm0,1.93a.566.566,0,1,1,.565-.565.566.566,0,0,1-.565.565ZM18.134,18.7a.4.4,0,0,0,.311-.738l-.01,0a.4.4,0,0,0-.3.74Zm-4.556,7.169a.4.4,0,1,0,.4.4A.4.4,0,0,0,13.578,25.866ZM25.808,28.5l.047,0a.4.4,0,0,0,.35-.444v-.017a.4.4,0,1,0-.4.463Zm.507,1.232V29.7a.4.4,0,1,0-.8,0v.033a.4.4,0,1,0,.8,0ZM15.12,17.9h.011a.354.354,0,0,0,.047,0,.4.4,0,1,0,.048-.8l-.053.4.053-.4a.4.4,0,1,0-.107.792ZM6.331,39.2l-.01-.007a.4.4,0,0,0-.479.639l.246-.315-.246.315a.4.4,0,1,0,.491-.631ZM7.406,19.458a.4.4,0,0,0,.2-.053l.014-.009a.4.4,0,1,0-.213.06ZM2.947,33.7a1.365,1.365,0,1,0,1.365,1.365A1.365,1.365,0,0,0,2.947,33.7Zm0,1.93a.566.566,0,1,1,.566-.565A.566.566,0,0,1,2.947,35.633Zm4.676,4.436a.4.4,0,0,0-.409.688l.014.009a.4.4,0,0,0,.4-.692ZM5.91,35.345h0a3.212,3.212,0,0,0-.61-2.07A2.963,2.963,0,0,0,2.947,32.07a2.987,2.987,0,0,0-2.077.88,3.137,3.137,0,0,0-.835,2.966,7.468,7.468,0,0,0,1.411,2.629A17.888,17.888,0,0,0,2.652,40.04h0l.013.014a.4.4,0,0,0,.558.007.357.357,0,0,0,.028-.029l.015-.017h0c.381-.426.764-.9,1.139-1.408l.136-.184A6.451,6.451,0,0,0,5.807,36.1a3.9,3.9,0,0,0,.1-.751Zm-.8-.031h0a3.1,3.1,0,0,1-.082.6A5.735,5.735,0,0,1,3.9,37.946l-.137.186c-.266.365-.541.711-.815,1.033-.279-.327-.56-.687-.855-1.091A6.884,6.884,0,0,1,.812,35.734a2.344,2.344,0,0,1,.618-2.217,2.184,2.184,0,0,1,1.517-.648,2.16,2.16,0,0,1,1.713.884,2.414,2.414,0,0,1,.452,1.561Zm5.264-17.093a.4.4,0,1,0-.1-.787h-.008a.4.4,0,0,0,.107.785Zm1.659,23.342h0a.4.4,0,1,0-.107.792h.005a.438.438,0,0,0,.053,0,.4.4,0,0,0,.053-.8Zm-1.529-.3-.013,0a.4.4,0,1,0-.2.774l.107-.385-.107.385a.4.4,0,1,0,.21-.771ZM8.847,18.742A.4.4,0,0,0,9,18.713l.014-.006a.4.4,0,0,0,.209-.527.4.4,0,0,0-.523-.208l.15.373-.15-.373a.4.4,0,0,0,.15.77Zm.175,22.015a.4.4,0,1,0-.311.736l.01,0a.4.4,0,0,0,.3-.74Zm6.126.8h-.005a.4.4,0,0,0,.053.8.437.437,0,0,0,.053,0h.005a.4.4,0,0,0-.107-.792Zm-12.2-17.9a1.365,1.365,0,1,0-1.365-1.365A1.365,1.365,0,0,0,2.947,23.652Zm0-1.93a.566.566,0,1,1-.566.566A.566.566,0,0,1,2.947,21.722Zm-1.5,4.044a17.889,17.889,0,0,0,1.206,1.495h0l.013.014a.4.4,0,0,0,.558.007.355.355,0,0,0,.028-.029l.01-.011.005-.006c.381-.426.764-.9,1.139-1.408l.136-.184a6.455,6.455,0,0,0,1.266-2.326,3.9,3.9,0,0,0,.107-.751h0A3.206,3.206,0,0,0,5.3,20.5,2.972,2.972,0,0,0,2.947,19.29a2.983,2.983,0,0,0-2.077.88,3.137,3.137,0,0,0-.835,2.966A7.468,7.468,0,0,0,1.446,25.766ZM1.43,20.737a2.181,2.181,0,0,1,1.517-.648,2.158,2.158,0,0,1,1.713.884,2.408,2.408,0,0,1,.452,1.561h0a3.1,3.1,0,0,1-.083.6A5.74,5.74,0,0,1,3.9,25.167l-.137.186c-.266.365-.542.711-.815,1.033-.278-.327-.56-.687-.855-1.09A6.889,6.889,0,0,1,.812,22.955a2.344,2.344,0,0,1,.618-2.217Zm18.105-1.351a.4.4,0,0,0,.2.053.4.4,0,0,0,.2-.746l-.009-.005a.4.4,0,1,0-.394.692ZM16.678,41.258a.4.4,0,0,0,.1.787.406.406,0,0,0,.1-.013l.011,0a.4.4,0,0,0-.21-.771ZM6.064,20.356a.4.4,0,1,0-.235-.723l-.01.007a.4.4,0,0,0,.245.716Zm12.094,20.4-.014.006a.4.4,0,0,0,.156.768.389.389,0,0,0,.16-.034l-.15-.373.15.373a.4.4,0,0,0-.3-.74ZM.854,29.745a.4.4,0,1,0,.8,0v-.005a.4.4,0,0,0-.8,0Zm.5,2.01.047,0a.4.4,0,0,0,.35-.444v-.017a.4.4,0,1,0-.4.463Zm-.06-.393.061-.007-.066.007Zm.01-2.829h.047a.4.4,0,1,0-.4-.46v.015a.4.4,0,0,0,.348.443Z" transform="translate(30.054 301)" fill="#3FB544"/>
  </g>
</svg>
